<?xml version="1.0" encoding="UTF-8"?>
<svg width="105px" height="42px" viewBox="0 0 105 42" version="1.1" xmlns="http://www.w3.org/2000/svg" xmlns:xlink="http://www.w3.org/1999/xlink">
    <!-- Generator: Sketch 55.2 (78181) - https://sketchapp.com -->
    <title>chainnodelogo</title>
    <desc>Created with Sketch.</desc>
    <defs>
        <path d="M0.684923077,3.73207547 C0.755192308,5.12186792 0.969230769,6.14656604 1.23496154,7.16639623 L1.23496154,7.16639623 C1.554,6.7745283 1.97076923,6.37941509 2.53776923,6.00620755 L2.53776923,6.00620755 C3.59826923,5.30928302 5.20234615,4.71377358 6.33957692,4.10609434 L6.33957692,4.10609434 C7.55515385,3.45703774 8.23603846,2.28711321 7.81442308,1.49120755 L7.81442308,1.49120755 C7.27569231,0.473811321 5.73703846,0.512754717 4.75892308,0.382943396 L4.75892308,0.382943396 C3.39311538,0.201207547 2.21469231,0.100603774 1.19134615,0.0624716981 L1.19134615,0.0624716981 C0.870692308,1.00116981 0.606576923,2.14756604 0.684923077,3.73207547" id="path-1"></path>
        <linearGradient x1="115.356389%" y1="-4.34608213%" x2="48.8154285%" y2="67.4153863%" id="linearGradient-3">
            <stop stop-color="#FFD600" offset="0%"></stop>
            <stop stop-color="#FFBF00" offset="100%"></stop>
        </linearGradient>
        <path d="M1.24626923,0.318037736 C0.0298846154,0.96790566 -0.133269231,2.62218868 0.106615385,4.05903774 L0.106615385,4.05903774 C0.362653846,5.58350943 1.00396154,7.29215094 1.69211538,9.9995283 L1.69211538,9.9995283 C2.31080769,12.4326792 2.00630769,14.5331887 1.80276923,15.9976226 L1.80276923,15.9976226 C2.33019231,14.5453585 2.89315385,13.2561698 3.34223077,12.3807547 L3.34223077,12.3807547 C4.62565385,9.88513208 6.56169231,7.1420566 8.35153846,5.37824528 L8.35153846,5.37824528 C6.2475,3.88622642 4.38173077,1.54313208 4.03846154,1.17722642 L4.03846154,1.17722642 C3.402,0.497339623 2.66942308,0.132245283 2.00873077,0.131433962 L2.00873077,0.131433962 C1.73896154,0.131433962 1.4805,0.19309434 1.24626923,0.318037736" id="path-4"></path>
        <linearGradient x1="68.0543844%" y1="-6.89525462%" x2="49.6727679%" y2="68.2322772%" id="linearGradient-6">
            <stop stop-color="#FFD600" offset="0%"></stop>
            <stop stop-color="#FFBF00" offset="100%"></stop>
        </linearGradient>
        <path d="M8.68026923,0.194716981 C6.80157692,1.93581132 4.70480769,4.8630566 3.34223077,7.51283019 L3.34223077,7.51283019 C1.67838462,10.7508113 -1.53784615,19.6477547 1.28019231,21.5356981 L1.28019231,21.5356981 C1.66223077,21.7912642 2.13392308,21.9016038 2.65003846,21.9056604 L2.65003846,21.9056604 L2.70819231,21.9056604 C4.16688462,21.8951132 5.96480769,21.0570189 7.09961538,20.255434 L7.09961538,20.255434 C8.61161538,19.1861132 9.79246154,18.3374717 10.7463462,18.3082642 L10.7463462,18.3082642 C12.4643077,18.2530943 13.6928077,19.2128868 15.8445,21.0659434 L15.8445,21.0659434 C16.9437692,22.0143774 18.2861538,22.0581887 19.2448846,21.5989811 L19.2448846,21.5989811 C21.6283846,20.4566415 21.63,16.8316604 21.2964231,15.4126604 L21.2964231,15.4126604 C20.7803077,13.2091132 20.1931154,11.890717 20.0695385,9.41132075 L20.0695385,9.41132075 C20.0073462,8.16107547 20.1583846,7.18424528 20.3829231,6.36724528 L20.3829231,6.36724528 C20.5291154,5.83339623 20.7278077,5.31739623 20.9604231,4.816 L20.9604231,4.816 C18.8975769,5.15513208 16.6077692,4.9214717 14.3397692,4.04686792 L14.3397692,4.04686792 C12.0233077,3.15441509 10.1325,1.74920755 8.82242308,0.0624716981 L8.82242308,0.0624716981 L8.68026923,0.194716981 Z" id="path-7"></path>
        <linearGradient x1="112.073355%" y1="-6.89525462%" x2="48.8749328%" y2="68.2322772%" id="linearGradient-9">
            <stop stop-color="#FFD600" offset="0%"></stop>
            <stop stop-color="#FFBF00" offset="100%"></stop>
        </linearGradient>
        <path d="M1.38276923,1.33949057 L0.743076923,3.01324528 C0.486230769,3.68583019 0.798807692,4.43143396 1.44011538,4.67888679 L1.44011538,4.67888679 L1.86253846,4.84115094 C1.94088462,4.09635849 2.11534615,3.34750943 2.39965385,2.60433962 L2.39965385,2.60433962 C2.65811538,1.92769811 2.97230769,1.29162264 3.32930769,0.693679245 L3.32930769,0.693679245 L3.01026923,0.570358491 C2.86973077,0.516 2.72434615,0.490849057 2.58057692,0.490849057 L2.58057692,0.490849057 C2.07092308,0.490849057 1.58388462,0.815377358 1.38276923,1.33949057" id="path-10"></path>
        <linearGradient x1="74.7317169%" y1="-6.89525462%" x2="49.5517426%" y2="68.2322772%" id="linearGradient-12">
            <stop stop-color="#FFD600" offset="0%"></stop>
            <stop stop-color="#FFBF00" offset="100%"></stop>
        </linearGradient>
        <path d="M1.41911538,2.66843396 C1.13561538,3.41160377 0.7665,4.08581132 0.328730769,4.69186792 L0.328730769,4.69186792 L0.750346154,4.8549434 C1.39246154,5.10239623 2.12180769,4.75758491 2.37784615,4.08581132 L2.37784615,4.08581132 L3.01753846,2.41124528 C3.27438462,1.7394717 2.96261538,0.993867925 2.32130769,0.747226415 L2.32130769,0.747226415 L2.00065385,0.62309434 C1.869,1.30784906 1.67838462,1.99260377 1.41911538,2.66843396" id="path-13"></path>
        <linearGradient x1="77.1421168%" y1="-6.89525462%" x2="49.5080545%" y2="68.2322772%" id="linearGradient-15">
            <stop stop-color="#FFD600" offset="0%"></stop>
            <stop stop-color="#FFBF00" offset="100%"></stop>
        </linearGradient>
        <path d="M0.719653846,8.37526415 C1.12834615,7.32703774 1.81165385,6.40781132 2.68073077,5.71656604 L2.68073077,5.71656604 C6.22246154,2.90858491 10.6478077,1.89362264 14.6256923,3.42783019 L14.6256923,3.42783019 C18.6035769,4.96122642 21.2164615,8.6900566 21.9773077,13.1571887 L21.9773077,13.1571887 C22.1638846,14.2540943 22.0580769,15.3980566 21.6639231,16.4503396 L21.6639231,16.4503396 C23.9803846,10.3159434 21.2810769,3.58766038 15.4269231,1.32975472 L15.4269231,1.32975472 C14.1491538,0.837283019 12.8406923,0.603622642 11.5524231,0.603622642 L11.5524231,0.603622642 C6.93646154,0.603622642 2.56926923,3.59415094 0.719653846,8.37526415" id="path-16"></path>
        <linearGradient x1="115.356389%" y1="19.8566629%" x2="48.8154285%" y2="59.6595346%" id="linearGradient-18">
            <stop stop-color="#FFD600" offset="0%"></stop>
            <stop stop-color="#FFBF00" offset="100%"></stop>
        </linearGradient>
        <path d="M0,5.56809434 C2.62742308,6.27881132 4.67815385,8.33956604 5.3865,10.9779811 L5.3865,10.9779811 C6.09323077,8.33956604 8.14557692,6.27881132 10.7713846,5.56809434 L10.7713846,5.56809434 C8.14557692,4.85737736 6.09323077,2.79662264 5.3865,0.157396226 L5.3865,0.157396226 C4.67815385,2.79662264 2.62742308,4.85737736 0,5.56809434" id="path-19"></path>
        <linearGradient x1="114.7634%" y1="-6.89525462%" x2="48.8261763%" y2="68.2322772%" id="linearGradient-21">
            <stop stop-color="#FFD600" offset="0%"></stop>
            <stop stop-color="#FFBF00" offset="100%"></stop>
        </linearGradient>
        <path d="M0.253615385,2.50860377 C1.44980769,2.83150943 2.3835,3.77020755 2.70657692,4.97177358 L2.70657692,4.97177358 C3.02884615,3.77020755 3.96334615,2.83150943 5.15953846,2.50860377 L5.15953846,2.50860377 C3.96334615,2.18407547 3.02884615,1.24618868 2.70657692,0.0446226415 L2.70657692,0.0446226415 C2.3835,1.24618868 1.44980769,2.18488679 0.253615385,2.50860377" id="path-22"></path>
        <linearGradient x1="114.794446%" y1="-6.89525462%" x2="48.8256135%" y2="68.2322772%" id="linearGradient-24">
            <stop stop-color="#FFD600" offset="0%"></stop>
            <stop stop-color="#FFBF00" offset="100%"></stop>
        </linearGradient>
        <path d="M3.76303846,0.481924528 C3.32930769,2.09401887 2.07496154,3.35318868 0.470076923,3.78967925 L0.470076923,3.78967925 C2.07496154,4.22454717 3.32930769,5.4845283 3.76303846,7.09662264 L3.76303846,7.09662264 C4.19596154,5.4845283 5.45030769,4.22454717 7.05519231,3.78967925 L7.05519231,3.78967925 C5.45030769,3.35318868 4.19596154,2.09401887 3.76303846,0.481924528 Z" id="path-25"></path>
        <linearGradient x1="114.773113%" y1="-6.89525462%" x2="48.8260002%" y2="68.2322772%" id="linearGradient-27">
            <stop stop-color="#FFD600" offset="0%"></stop>
            <stop stop-color="#FFBF00" offset="100%"></stop>
        </linearGradient>
        <polygon id="path-28" points="0 41.3773585 104.327192 41.3773585 104.327192 0.481924528 0 0.481924528"></polygon>
    </defs>
    <g id="缺省图" stroke="none" stroke-width="1" fill="none" fill-rule="evenodd">
        <g id="0-1-缺省图" transform="translate(-378.000000, -37.000000)">
            <g id="chainnodelogo" transform="translate(378.000000, 37.000000)">
                <g id="编组" transform="translate(33.115385, 25.480664)">
                    <mask id="mask-2" fill="white">
                        <use xlink:href="#path-1"></use>
                    </mask>
                    <g id="Clip-2"></g>
                    <path d="M0.684923077,3.73207547 C0.755192308,5.12186792 0.969230769,6.14656604 1.23496154,7.16639623 L1.23496154,7.16639623 C1.554,6.7745283 1.97076923,6.37941509 2.53776923,6.00620755 L2.53776923,6.00620755 C3.59826923,5.30928302 5.20234615,4.71377358 6.33957692,4.10609434 L6.33957692,4.10609434 C7.55515385,3.45703774 8.23603846,2.28711321 7.81442308,1.49120755 L7.81442308,1.49120755 C7.27569231,0.473811321 5.73703846,0.512754717 4.75892308,0.382943396 L4.75892308,0.382943396 C3.39311538,0.201207547 2.21469231,0.100603774 1.19134615,0.0624716981 L1.19134615,0.0624716981 C0.870692308,1.00116981 0.606576923,2.14756604 0.684923077,3.73207547" id="Fill-1" fill="url(#linearGradient-3)" mask="url(#mask-2)"></path>
                </g>
                <g id="编组" transform="translate(33.115385, 24.669343)">
                    <path d="M1.41321923,4.68091509 C1.04248846,3.19376415 1.02875769,2.03357547 1.10629615,1.1354434 C0.825219231,2.02546226 0.613603846,3.10289623 0.685488462,4.54380189 C0.75495,5.93278302 0.968988462,6.95748113 1.23552692,7.97731132 C1.48510385,7.6714434 1.79606538,7.36151887 2.19183462,7.06295283 C1.91398846,6.38712264 1.64664231,5.6155566 1.41321923,4.68091509" id="Fill-3" fill="#B38600" opacity="0.402018229"></path>
                    <path d="M4.2819,1.60673962 C4.43374615,1.60998491 4.60093846,1.60755094 4.77378462,1.60511698 C5.70424615,1.59213585 6.94163077,1.57753208 7.71863077,2.36694717 C7.70166923,2.23794717 7.66613077,2.11462642 7.60555385,1.99941887 C7.06682308,0.981211321 5.52816923,1.02015472 4.55005385,0.890343396 C3.18424615,0.709418868 2.00582308,0.608815094 0.982476923,0.57149434 C0.866169231,0.909815094 0.758746154,1.27572075 0.670707692,1.67894717 C1.74736154,1.60106038 2.96132308,1.57672075 4.2819,1.60673962" id="Fill-5" fill="#FFFFFF" opacity="0.200000003"></path>
                </g>
                <g id="编组" transform="translate(13.730769, 14.933494)">
                    <mask id="mask-5" fill="white">
                        <use xlink:href="#path-4"></use>
                    </mask>
                    <g id="Clip-8"></g>
                    <path d="M1.24626923,0.318037736 C0.0298846154,0.96790566 -0.133269231,2.62218868 0.106615385,4.05903774 L0.106615385,4.05903774 C0.362653846,5.58350943 1.00396154,7.29215094 1.69211538,9.9995283 L1.69211538,9.9995283 C2.31080769,12.4326792 2.00630769,14.5331887 1.80276923,15.9976226 L1.80276923,15.9976226 C2.33019231,14.5453585 2.89315385,13.2561698 3.34223077,12.3807547 L3.34223077,12.3807547 C4.62565385,9.88513208 6.56169231,7.1420566 8.35153846,5.37824528 L8.35153846,5.37824528 C6.2475,3.88622642 4.38173077,1.54313208 4.03846154,1.17722642 L4.03846154,1.17722642 C3.402,0.497339623 2.66942308,0.132245283 2.00873077,0.131433962 L2.00873077,0.131433962 C1.73896154,0.131433962 1.4805,0.19309434 1.24626923,0.318037736" id="Fill-7" fill="url(#linearGradient-6)" mask="url(#mask-5)"></path>
                    <g mask="url(#mask-5)">
                        <g transform="translate(0.807692, 0.000000)">
                            <path d="M2.88184615,1.5869434 C2.94323077,1.65915094 3.04742308,1.79220755 3.18796154,1.97313208 C3.83169231,2.79662264 5.25161538,4.61235849 6.90253846,6.04596226 C7.11657692,5.81149057 7.33142308,5.58756604 7.54384615,5.37824528 C5.43980769,3.88622642 3.57403846,1.54313208 3.23076923,1.17641509 C2.48607692,0.381320755 1.60973077,0.0178490566 0.869884615,0.166320755 C1.5855,0.392679245 2.28011538,0.879471698 2.88184615,1.5869434" id="Fill-9" fill="#FFFFFF" opacity="0.200000003"></path>
                            <path d="M7.54425,5.37816415 C5.50805769,6.37122075 2.98644231,9.62705094 1.24505769,12.4820887 C-0.749134615,15.7500887 0.492288462,17.4757679 0.492288462,17.4757679 L7.54425,5.37816415 Z" id="Fill-11" fill="#B38600" opacity="0.402018229"></path>
                        </g>
                    </g>
                </g>
                <g id="编组" transform="translate(13.730769, 19.801419)">
                    <mask id="mask-8" fill="white">
                        <use xlink:href="#path-7"></use>
                    </mask>
                    <g id="Clip-14"></g>
                    <path d="M8.68026923,0.194716981 C6.80157692,1.93581132 4.70480769,4.8630566 3.34223077,7.51283019 L3.34223077,7.51283019 C1.67838462,10.7508113 -1.53784615,19.6477547 1.28019231,21.5356981 L1.28019231,21.5356981 C1.66223077,21.7912642 2.13392308,21.9016038 2.65003846,21.9056604 L2.65003846,21.9056604 L2.70819231,21.9056604 C4.16688462,21.8951132 5.96480769,21.0570189 7.09961538,20.255434 L7.09961538,20.255434 C8.61161538,19.1861132 9.79246154,18.3374717 10.7463462,18.3082642 L10.7463462,18.3082642 C12.4643077,18.2530943 13.6928077,19.2128868 15.8445,21.0659434 L15.8445,21.0659434 C16.9437692,22.0143774 18.2861538,22.0581887 19.2448846,21.5989811 L19.2448846,21.5989811 C21.6283846,20.4566415 21.63,16.8316604 21.2964231,15.4126604 L21.2964231,15.4126604 C20.7803077,13.2091132 20.1931154,11.890717 20.0695385,9.41132075 L20.0695385,9.41132075 C20.0073462,8.16107547 20.1583846,7.18424528 20.3829231,6.36724528 L20.3829231,6.36724528 C20.5291154,5.83339623 20.7278077,5.31739623 20.9604231,4.816 L20.9604231,4.816 C18.8975769,5.15513208 16.6077692,4.9214717 14.3397692,4.04686792 L14.3397692,4.04686792 C12.0233077,3.15441509 10.1325,1.74920755 8.82242308,0.0624716981 L8.82242308,0.0624716981 L8.68026923,0.194716981 Z" id="Fill-13" fill="url(#linearGradient-9)" mask="url(#mask-8)"></path>
                    <path d="M21.7459038,4.37666981 C19.3971346,4.56733019 16.7963654,4.20548113 14.2270962,3.21404717 C11.6586346,2.22423585 9.48432692,0.745198113 7.86571154,-0.974801887 C6.88840385,-2.01410377 6.26971154,-3.37063208 6.17440385,-4.83506604 C6.42721154,-0.854726415 8.95690385,3.40551887 13.3967885,5.11740566 C17.8358654,6.82848113 22.7345192,5.43300943 25.5743654,2.64531132 C24.5267885,3.66919811 23.1642115,4.26146226 21.7459038,4.37666981" id="Fill-15" fill="#B38600" opacity="0.402018229" mask="url(#mask-8)"></path>
                </g>
                <g id="编组" transform="translate(18.576923, 8.442928)">
                    <mask id="mask-11" fill="white">
                        <use xlink:href="#path-10"></use>
                    </mask>
                    <g id="Clip-18"></g>
                    <path d="M1.38276923,1.33949057 L0.743076923,3.01324528 C0.486230769,3.68583019 0.798807692,4.43143396 1.44011538,4.67888679 L1.44011538,4.67888679 L1.86253846,4.84115094 C1.94088462,4.09635849 2.11534615,3.34750943 2.39965385,2.60433962 L2.39965385,2.60433962 C2.65811538,1.92769811 2.97230769,1.29162264 3.32930769,0.693679245 L3.32930769,0.693679245 L3.01026923,0.570358491 C2.86973077,0.516 2.72434615,0.490849057 2.58057692,0.490849057 L2.58057692,0.490849057 C2.07092308,0.490849057 1.58388462,0.815377358 1.38276923,1.33949057" id="Fill-17" fill="url(#linearGradient-12)" mask="url(#mask-11)"></path>
                    <path d="M3.91989231,0.904784906 C3.74058462,0.779030189 3.53866154,0.714124528 3.33431538,0.703577358 C3.33350769,0.703577358 3.33350769,0.704388679 3.33350769,0.704388679 C2.86827692,1.21633208 2.44423846,1.76884151 2.07350769,2.34893585 C1.67450769,2.97446415 1.35385385,3.64542642 1.12123846,4.34478491 C1.12123846,4.34559623 1.12043077,4.34640755 1.12043077,4.34640755 C1.20685385,4.49893585 1.32316154,4.63280377 1.47096923,4.73584151 L1.84008462,4.99303019 C2.08562308,4.25391698 2.42485385,3.53021887 2.86746923,2.83816226 C3.27050769,2.2061434 3.71877692,1.62848302 4.19935385,1.09950189 L3.91989231,0.904784906 Z" id="Fill-19" fill="#B38600" opacity="0.402018229" mask="url(#mask-11)"></path>
                </g>
                <g id="编组" transform="translate(40.384615, 16.556136)">
                    <mask id="mask-14" fill="white">
                        <use xlink:href="#path-13"></use>
                    </mask>
                    <g id="Clip-22"></g>
                    <path d="M1.41911538,2.66843396 C1.13561538,3.41160377 0.7665,4.08581132 0.328730769,4.69186792 L0.328730769,4.69186792 L0.750346154,4.8549434 C1.39246154,5.10239623 2.12180769,4.75758491 2.37784615,4.08581132 L2.37784615,4.08581132 L3.01753846,2.41124528 C3.27438462,1.7394717 2.96261538,0.993867925 2.32130769,0.747226415 L2.32130769,0.747226415 L2.00065385,0.62309434 C1.869,1.30784906 1.67838462,1.99260377 1.41911538,2.66843396" id="Fill-21" fill="url(#linearGradient-15)" mask="url(#mask-14)"></path>
                </g>
                <g id="编组" transform="translate(20.192308, 2.763683)">
                    <mask id="mask-17" fill="white">
                        <use xlink:href="#path-16"></use>
                    </mask>
                    <g id="Clip-30"></g>
                    <path d="M0.719653846,8.37526415 C1.12834615,7.32703774 1.81165385,6.40781132 2.68073077,5.71656604 L2.68073077,5.71656604 C6.22246154,2.90858491 10.6478077,1.89362264 14.6256923,3.42783019 L14.6256923,3.42783019 C18.6035769,4.96122642 21.2164615,8.6900566 21.9773077,13.1571887 L21.9773077,13.1571887 C22.1638846,14.2540943 22.0580769,15.3980566 21.6639231,16.4503396 L21.6639231,16.4503396 C23.9803846,10.3159434 21.2810769,3.58766038 15.4269231,1.32975472 L15.4269231,1.32975472 C14.1491538,0.837283019 12.8406923,0.603622642 11.5524231,0.603622642 L11.5524231,0.603622642 C6.93646154,0.603622642 2.56926923,3.59415094 0.719653846,8.37526415" id="Fill-29" fill="url(#linearGradient-18)" mask="url(#mask-17)"></path>
                </g>
                <g id="编组" transform="translate(20.192308, 5.197645)">
                    <path d="M19.8315923,17.0210226 C19.8558231,16.9950604 19.8792462,16.9682868 19.9026692,16.9407019 C19.9850538,16.8482113 20.0674385,16.7549094 20.1474,16.6583623 C20.1748615,16.6242868 20.2015154,16.5894 20.2289769,16.5545132 C20.3016692,16.4636453 20.3751692,16.3711547 20.4446308,16.2762302 C20.4769385,16.2324189 20.5068231,16.1877962 20.5383231,16.1431736 C20.6013231,16.0547396 20.6643231,15.9654943 20.7240923,15.8746264 C20.7604385,15.8194566 20.7935538,15.7618528 20.8290923,15.7058717 C20.8815923,15.6214943 20.9349,15.5387396 20.9857846,15.4519283 C21.0261692,15.3821547 21.0625154,15.3115698 21.1012846,15.2401736 C21.1432846,15.1639094 21.1869,15.0884566 21.2264769,15.0097585 C21.2725154,14.9197019 21.3161308,14.8255887 21.3597462,14.7330981 C21.3888231,14.6714377 21.4195154,14.6105887 21.4469769,14.5489283 C21.5172462,14.3915321 21.5842846,14.2308906 21.6464769,14.0670038 C21.6529385,14.0507774 21.6577846,14.0337396 21.6642462,14.0167019 C22.0584,12.9636075 22.3968231,11.211966 22.2094385,10.1150604 C21.4494,5.64711698 18.6030923,2.52758868 14.6260154,0.993381132 C10.6481308,-0.540826415 6.45459231,-0.134354717 2.91366923,2.67443774 C2.04459231,3.36406038 1.12866923,4.8934 0.719976923,5.94162642 C0.713515385,5.95785283 0.705438462,5.97407925 0.699784615,5.99030566 C0.636784615,6.15338113 0.579438462,6.31807925 0.526938462,6.48196604 C0.505938462,6.5468717 0.488976923,6.61258868 0.468784615,6.67749434 C0.439707692,6.77647547 0.409015385,6.87464528 0.383169231,6.97362642 C0.361361538,7.05881509 0.342784615,7.14319245 0.3234,7.22838113 C0.304015385,7.30626792 0.284630769,7.38496604 0.267669231,7.46447547 C0.248284615,7.56183396 0.232130769,7.66000377 0.215169231,7.75736226 C0.203861538,7.82226792 0.190938462,7.88798491 0.181246154,7.95289057 C0.164284615,8.06160755 0.152976923,8.16951321 0.140053846,8.27823019 C0.133592308,8.33177736 0.126323077,8.38532453 0.121476923,8.43968302 C0.110169231,8.55651321 0.102092308,8.67415472 0.0956307692,8.79098491 C0.0940153846,8.83560755 0.0899769231,8.88023019 0.0883615385,8.92404151 C0.0827076923,9.04898491 0.0810923077,9.1739283 0.0810923077,9.29806038 C0.0810923077,9.33375849 0.0802846154,9.3694566 0.0802846154,9.40515472 C0.0819,9.53658868 0.0875538462,9.66802264 0.0940153846,9.7994566 C0.0956307692,9.82785283 0.0964384615,9.85624906 0.0980538462,9.88464528 C0.194976923,11.3498906 0.812861538,12.7064189 1.79016923,13.7449094 C3.40878462,15.4657208 5.58228462,16.9439472 8.15155385,17.9345698 C10.7216308,18.9251925 13.3207846,19.2878528 15.6703615,19.0971925 C17.0886692,18.9811736 18.4520538,18.3897208 19.4988231,17.365834 C19.5190154,17.3447396 19.5392077,17.3244566 19.5594,17.3049849 C19.6514769,17.211683 19.7435538,17.1175698 19.8315923,17.0210226" id="Fill-31" fill="#000000"></path>
                    <path d="M17.9188154,10.3134283 C18.0763154,10.3272208 18.1869692,10.4756925 18.1651615,10.6468811 C18.1433538,10.8172585 17.9979692,10.9446358 17.8396615,10.9316547 C17.6821615,10.9178623 17.5715077,10.7693906 17.5933154,10.5990132 C17.6151231,10.4278245 17.7613154,10.3004472 17.9188154,10.3134283" id="Fill-33" fill="#FFFFFF"></path>
                    <path d="M18.3471346,7.35811132 C18.8535577,7.40111132 19.2065192,7.87979057 19.1370577,8.42580943 C19.0675962,8.97263962 18.5991346,9.38154528 18.0935192,9.33854528 C17.5870962,9.2963566 17.2325192,8.81848868 17.3027885,8.27165849 C17.3730577,7.72401698 17.8407115,7.31511132 18.3471346,7.35811132" id="Fill-35" fill="#FFFFFF"></path>
                    <path d="M16.6599462,5.94625094 C17.0217923,5.97708113 17.2746,6.31783585 17.2245231,6.70808113 C17.1744462,7.09913774 16.8408692,7.39121321 16.4790231,7.36038302 C16.1171769,7.33036415 15.8651769,6.98879811 15.9144462,6.59855283 C15.9653308,6.20749623 16.2989077,5.91623208 16.6599462,5.94625094" id="Fill-37" fill="#FFFFFF"></path>
                </g>
                <g id="编组" transform="translate(20.192308, 10.876891)">
                    <path d="M21.8547808,6.67749434 C21.7287808,7.23649434 21.5648192,7.79468302 21.3540115,8.34800377 C21.0697038,9.09117358 20.6997808,9.76538113 20.2620115,10.3714377 L20.6852423,10.5345132 C20.91705,10.6237585 21.1609731,10.635117 21.38955,10.5815698 C21.4969731,10.4144377 21.5801654,10.2302679 21.6358962,10.0323057 L22.1108192,8.30419245 C22.27155,7.72409811 22.1592808,7.13426792 21.8547808,6.67749434" id="Fill-23" fill="#B38600" opacity="0.402018229"></path>
                    <path d="M1.32324231,0.469835849 C1.32162692,0.475515094 1.31920385,0.48119434 1.31758846,0.486873585 C1.32324231,0.47064717 1.33051154,0.455232075 1.33697308,0.439816981 C1.33293462,0.450364151 1.32728077,0.459288679 1.32324231,0.469835849" id="Fill-25" fill="#000000"></path>
                    <path d="M15.6700385,13.4176226 C13.3212692,13.608283 10.7213077,13.2456226 8.15123077,12.255 C5.58276923,11.2651887 3.40846154,9.78615094 1.78984615,8.06533962 C0.812538462,7.02684906 0.194653846,5.67032075 0.0985384615,4.20588679 C0.352153846,8.18541509 3.21865385,11.8339245 7.65853846,13.5458113 C12.0984231,15.2585094 16.6594615,14.4739623 19.4985,11.6862642 C18.4517308,12.7101509 17.0883462,13.3016038 15.6700385,13.4176226" id="Fill-27" fill="#FFF3B3"></path>
                </g>
                <g id="编组" transform="translate(0.000000, 23.858023)">
                    <mask id="mask-20" fill="white">
                        <use xlink:href="#path-19"></use>
                    </mask>
                    <g id="Clip-40"></g>
                    <path d="M0,5.56809434 C2.62742308,6.27881132 4.67815385,8.33956604 5.3865,10.9779811 L5.3865,10.9779811 C6.09323077,8.33956604 8.14557692,6.27881132 10.7713846,5.56809434 L10.7713846,5.56809434 C8.14557692,4.85737736 6.09323077,2.79662264 5.3865,0.157396226 L5.3865,0.157396226 C4.67815385,2.79662264 2.62742308,4.85737736 0,5.56809434" id="Fill-39" fill="url(#linearGradient-21)" mask="url(#mask-20)"></path>
                </g>
                <g id="编组" transform="translate(41.192308, 31.971230)">
                    <mask id="mask-23" fill="white">
                        <use xlink:href="#path-22"></use>
                    </mask>
                    <g id="Clip-42"></g>
                    <path d="M0.253615385,2.50860377 C1.44980769,2.83150943 2.3835,3.77020755 2.70657692,4.97177358 L2.70657692,4.97177358 C3.02884615,3.77020755 3.96334615,2.83150943 5.15953846,2.50860377 L5.15953846,2.50860377 C3.96334615,2.18407547 3.02884615,1.24618868 2.70657692,0.0446226415 L2.70657692,0.0446226415 C2.3835,1.24618868 1.44980769,2.18488679 0.253615385,2.50860377" id="Fill-41" fill="url(#linearGradient-24)" mask="url(#mask-23)"></path>
                </g>
                <g id="编组" transform="translate(10.500000, 0.329721)">
                    <mask id="mask-26" fill="white">
                        <use xlink:href="#path-25"></use>
                    </mask>
                    <g id="Clip-44"></g>
                    <path d="M3.76303846,0.481924528 C3.32930769,2.09401887 2.07496154,3.35318868 0.470076923,3.78967925 L0.470076923,3.78967925 C2.07496154,4.22454717 3.32930769,5.4845283 3.76303846,7.09662264 L3.76303846,7.09662264 C4.19596154,5.4845283 5.45030769,4.22454717 7.05519231,3.78967925 L7.05519231,3.78967925 C5.45030769,3.35318868 4.19596154,2.09401887 3.76303846,0.481924528 Z" id="Fill-43" fill="url(#linearGradient-27)" mask="url(#mask-26)"></path>
                </g>
                <g id="编组" transform="translate(0.000000, 0.329721)">
                    <path d="M84.9383769,8.32553019 L83.5152231,8.32553019 C83.1202615,8.32553019 82.8004154,8.64681321 82.8004154,9.04436038 L82.8004154,9.81836038 L76.4139923,9.81836038 L76.4139923,8.32553019 L74.9932615,8.32553019 C74.5974923,8.32553019 74.2768385,8.64681321 74.2768385,9.04436038 L74.2768385,9.81836038 L71.7382615,9.81836038 C71.3433,9.81836038 71.0226462,10.1396434 71.0226462,10.5371906 L71.0226462,11.9058887 L74.2768385,11.9058887 L74.2768385,13.7500208 L75.6991846,13.7500208 C76.0941462,13.7500208 76.4139923,13.4279264 76.4139923,13.0311906 L76.4139923,11.9058887 L82.8004154,11.9058887 L82.8004154,13.7500208 L84.2227615,13.7500208 C84.6185308,13.7500208 84.9383769,13.4279264 84.9383769,13.0311906 L84.9383769,11.9058887 L87.4026462,11.9058887 C87.7984154,11.9058887 88.1190692,11.5846057 88.1190692,11.1870585 L88.1190692,9.81836038 L84.9383769,9.81836038 L84.9383769,8.32553019 Z" id="Fill-45" fill="#000000"></path>
                    <path d="M87.3495808,15.3833717 L72.8410038,15.3833717 C72.4452346,15.3833717 72.1245808,15.705466 72.1245808,16.1030132 L72.1245808,17.5317491 L77.4925038,17.5317491 L77.4925038,27.1280509 L78.9132346,27.1280509 C79.3081962,27.1280509 79.6280423,26.8051453 79.6280423,26.4084094 L79.6280423,17.5317491 L85.1817346,17.5317491 L85.1817346,19.4748623 C85.1825423,20.4735981 84.6518885,21.3976925 83.7908885,21.8966547 L83.0114654,22.350183 L83.6341962,23.4341075 C83.8797346,23.8624849 84.4249269,24.009334 84.8505808,23.7626925 C84.8505808,23.7626925 84.8505808,23.7618811 84.8513885,23.7618811 L85.1696192,23.5785226 C86.8310423,22.6146736 87.3495808,20.8330132 87.3495808,18.9061264 L87.3495808,17.5317491 L87.3495808,15.3833717 Z" id="Fill-47" fill="#000000"></path>
                    <path d="M88.6423731,25.5470302 L88.6423731,26.9846906 L99.1738731,26.9846906 C99.6657577,26.9846906 100.064758,26.5847094 100.064758,26.0906151 L100.064758,24.6521422 L89.5340654,24.6521422 C89.0429885,24.6513321 88.6431808,25.0521245 88.6423731,25.5454075 L88.6423731,25.5470302 Z" id="Fill-49" fill="#000000"></path>
                    <path d="M102.322662,24.6525478 C101.830777,24.6517377 101.430969,25.0517189 101.430969,25.5458132 L101.430969,25.5474358 L101.430969,26.9850962 L103.434854,26.9850962 C103.926738,26.9850962 104.325738,26.5851151 104.326546,26.0902094 L104.326546,24.6525478 L102.322662,24.6525478 Z" id="Fill-51" fill="#000000"></path>
                    <path d="M101.309896,20.4890132 C101.309896,20.6472208 101.182281,20.7762208 101.023973,20.7762208 L92.0715115,20.7762208 L92.0715115,16.805617 C92.0715115,16.6474094 92.1999346,16.5175981 92.3574346,16.5175981 L101.309896,16.5175981 L101.309896,20.4890132 Z M103.44705,20.9547113 L103.44705,14.3708434 L94.80555,14.3708434 L94.80555,11.9060509 L102.006935,11.9060509 C102.403512,11.9060509 102.723358,11.5839566 102.723358,11.1872208 L102.723358,9.81852264 L94.80555,9.81852264 L94.80555,8.17722075 L93.3832038,8.17722075 C92.9874346,8.17722075 92.6675885,8.49931509 92.6675885,8.89605094 L92.6675885,14.3708434 L91.8938192,14.3708434 C90.8115115,14.3716547 89.9343577,15.2527491 89.93355,16.3399189 L89.93355,22.9237868 L101.486781,22.9237868 C102.568281,22.9221642 103.445435,22.0418811 103.44705,20.9547113 L103.44705,20.9547113 Z" id="Fill-53" fill="#000000"></path>
                    <path d="M54.46455,16.6779962 L54.9451269,16.6779962 C55.3400885,16.6779962 55.6599346,16.3567132 55.6599346,15.9583547 L55.6599346,14.5296189 L52.3459731,14.5296189 C51.9510115,14.5296189 51.6303577,14.8509019 51.6303577,15.2484491 L51.6303577,16.6779962 L52.3217423,16.6779962 L52.3217423,18.9602415 L51.1005115,18.9602415 C50.70555,18.9602415 50.3840885,19.2823358 50.3840885,19.6790717 L50.3840885,21.1069962 L52.3217423,21.1069962 L52.3217423,24.7400906 L52.0770115,24.8836943 C51.8015885,25.0443358 51.6319731,25.3396566 51.6311654,25.6585057 L51.6311654,27.6162226 L55.1591654,25.5684491 C55.4370115,25.4078075 55.6074346,25.1100528 55.6042038,24.7871472 L55.5920885,22.839166 L54.4621269,23.4947132 L54.4621269,21.1069962 L55.5161654,21.1069962 C55.9111269,21.1069962 56.2317808,20.7849019 56.2317808,20.388166 L56.2317808,18.9602415 L54.46455,18.9602415 L54.46455,16.6779962 Z" id="Fill-55" fill="#000000"></path>
                    <path d="M62.8278,16.6763736 L64.8131077,16.6763736 L64.8131077,18.9878264 L62.2058769,18.9878264 C61.8109154,18.9878264 61.4902615,19.3091094 61.4902615,19.7066566 L61.4902615,21.1345811 L64.8131077,21.1345811 L64.8131077,24.0569585 L66.2338385,24.0569585 C66.6288,24.0569585 66.9494538,23.7348642 66.9494538,23.3381283 L66.9494538,21.1345811 L68.6431846,21.1345811 C69.0381462,21.1345811 69.3588,20.8132981 69.3588,20.4149396 L69.3588,18.9878264 L66.9494538,18.9878264 L66.9494538,16.6763736 L68.3079923,16.6763736 C68.8006846,16.6763736 69.1996846,16.2763925 69.2004923,15.7814868 L69.2004923,14.5296189 L66.9494538,14.5296189 L66.9494538,13.1122415 L65.5279154,13.1122415 C65.1329538,13.1122415 64.8114923,13.4351472 64.8114923,13.831883 L64.8114923,14.5296189 L63.7009154,14.5296189 C63.6282231,14.5296189 63.5692615,14.4703925 63.5684538,14.3965623 C63.5684538,14.3787132 63.5733,14.3600528 63.5805692,14.3422038 L64.6653,11.896883 L68.4824538,11.896883 C68.8782231,11.896883 69.1988769,11.5756 69.1988769,11.1788642 L69.1988769,9.7501283 L65.6191846,9.7501283 L66.0949154,8.67756226 L64.3333385,8.67756226 C63.9819923,8.67756226 63.6629538,8.88526038 63.5199923,9.20816604 L63.2801077,9.75175094 L62.0459538,9.75175094 C61.6501846,9.75175094 61.3303385,10.0738453 61.3303385,10.4713925 L61.3303385,11.9001283 L62.3326846,11.9001283 L61.1583,14.5296189 C60.9264923,15.4537132 61.4846077,16.3907887 62.4053769,16.6244491 C62.5426846,16.6593358 62.6848385,16.6763736 62.8278,16.6763736" id="Fill-57" fill="#000000"></path>
                    <path d="M60.6831346,25.467034 L60.6831346,26.8925245 L69.5176731,26.8925245 C69.9134423,26.8925245 70.2332885,26.5704302 70.2332885,26.1736943 L70.2332885,24.7449585 L61.39875,24.7449585 C61.0029808,24.7449585 60.6831346,25.0678642 60.6831346,25.4646 L60.6831346,25.467034 Z" id="Fill-59" fill="#000000"></path>
                    <path d="M56.7298846,10.5027906 L56.7298846,11.9307151 L59.3613462,11.9307151 C59.7563077,11.9307151 60.0777692,11.6086208 60.0777692,11.2118849 L60.0777692,9.78314906 L57.4463077,9.78314906 C57.0497308,9.78314906 56.7298846,10.1052434 56.7298846,10.5027906" id="Fill-61" fill="#000000"></path>
                    <path d="M52.9185462,11.9320943 L54.9418154,11.9320943 C55.3367769,11.9320943 55.6574308,11.6108113 55.6574308,11.2124528 L55.6574308,9.78371698 L53.2238538,9.78371698 L53.2238538,8.66815094 L51.9452769,8.66815094 C51.4533923,8.66815094 51.0543923,9.06813208 51.0543923,9.56222642 L51.0543923,9.56303774 L51.0543923,10.5950377 C51.0180462,11.3552453 50.5390846,12.0229623 49.8323538,12.2971887 L49.8323538,14.1461887 C49.8331615,14.3060189 49.9623923,14.4333962 50.1198923,14.4325888 C50.1457385,14.4325888 50.1723923,14.4285283 50.1974308,14.4212264 C51.4380462,14.0577547 52.4420077,13.1385283 52.9185462,11.9320943" id="Fill-63" fill="#000000"></path>
                    <path d="M57.91065,13.6735943 L57.4462269,13.6735943 C57.0504577,13.6735943 56.7298038,13.9948774 56.7298038,14.3932358 L56.7298038,15.6799906 C56.7298038,15.7586887 56.7936115,15.8235943 56.8735731,15.8235943 L57.91065,15.8235943 L57.91065,22.1510849 C57.91065,23.7331604 57.5415346,24.0008962 56.8089577,24.5331226 L56.8089577,27.0181981 C56.8097654,27.1415189 56.9107269,27.2405 57.0326885,27.238897 C57.07065,27.238897 57.1078038,27.2283302 57.1409192,27.2096698 C58.7554962,26.271783 60.0793038,25.0621038 60.0793038,22.0967264 L60.0793038,15.8235943 L60.0793038,13.6735943 L57.91065,13.6735943 Z" id="Fill-65" fill="#000000"></path>
                    <path d="M51.3094615,37.5956302 L56.8122692,37.5956302 C57.1418077,37.5956302 57.4083462,37.3278943 57.4083462,36.9976868 L57.4083462,36.3989321 L52.5008077,36.3989321 L52.5008077,31.7281585 L56.8122692,31.7281585 C57.1418077,31.7281585 57.4083462,31.4604226 57.4083462,31.1294038 L57.4083462,30.5314604 L51.9047308,30.5314604 C51.576,30.5314604 51.3094615,30.7991962 51.3094615,31.1294038 L51.3094615,37.5956302 Z" id="Fill-67" fill="#000000"></path>
                    <path d="M84.1125115,35.5824189 L79.7986269,30.372117 L79.2033577,30.372117 C78.8746269,30.372117 78.6080885,30.6398528 78.6080885,30.9700604 L78.6080885,37.5953057 L79.2033577,37.5953057 C79.5320885,37.5953057 79.7986269,37.3275698 79.7986269,36.9973623 L79.7986269,32.2673623 L84.1125115,37.5953057 L84.7021269,37.5953057 C85.0316654,37.5953057 85.2982038,37.3275698 85.2982038,36.9973623 L85.2982038,30.372117 L84.7021269,30.372117 C84.3733962,30.372117 84.1068577,30.6398528 84.1068577,30.9700604 L84.1125115,35.5824189 Z" id="Fill-69" fill="#000000"></path>
                    <mask id="mask-29" fill="white">
                        <use xlink:href="#path-28"></use>
                    </mask>
                    <g id="Clip-72"></g>
                    <path d="M65.1767308,36.5329623 L68.0941154,36.5329623 L68.0941154,35.669717 L65.1767308,35.669717 L65.1767308,36.5329623 Z M64.7001923,33.8499245 L68.0941154,33.8499245 L68.0941154,34.6068868 L64.7018077,34.6068868 C64.3730769,34.6068868 64.1065385,34.8746226 64.1065385,35.2056415 L64.1065385,37.5957925 L68.6877692,37.5957925 C69.0165,37.5957925 69.2830385,37.3280566 69.2830385,36.9978491 L69.2830385,32.6499811 L65.2954615,32.6499811 C64.9667308,32.6499811 64.7001923,32.917717 64.7001923,33.2479245 L64.7001923,33.8499245 Z" id="Fill-71" fill="#000000" mask="url(#mask-29)"></path>
                    <path d="M59.3485846,31.0393472 L58.7533154,31.0393472 C58.4237769,31.0401585 58.1580462,31.307083 58.1572385,31.6372906 L58.1572385,37.5956302 L58.7533154,37.5956302 C59.0820462,37.5956302 59.3485846,37.3278943 59.3485846,36.9976868 L59.3485846,33.8497623 L62.1658154,33.8497623 L62.1658154,37.5956302 L62.7618923,37.5956302 C63.0898154,37.5956302 63.3555462,37.3287057 63.3555462,36.9993094 L63.3555462,36.9976868 L63.3555462,32.6498189 L59.3469692,32.6498189 L59.3485846,31.0393472 Z" id="Fill-73" fill="#000000" mask="url(#mask-29)"></path>
                    <path d="M93.9956769,36.4047736 L93.9956769,33.5732642 L97.0834846,33.5732642 L97.0834846,36.3990943 L93.9956769,36.4047736 Z M97.0834846,32.3781887 L93.3527538,32.3781887 C93.0506769,32.3773774 92.8051385,32.6223962 92.8043308,32.9258302 L92.8043308,32.9290755 L92.8043308,36.9816226 L92.8043308,37.5957925 L97.7312538,37.5957925 C98.0341385,37.5957925 98.2804846,37.3491509 98.2812923,37.0449057 L98.2812923,31.0395094 L97.6852154,31.0395094 C97.3564846,31.0395094 97.0891385,31.3072453 97.0891385,31.6374528 L97.0834846,32.3781887 Z" id="Fill-74" fill="#000000" mask="url(#mask-29)"></path>
                    <path d="M73.0098923,32.6500623 L72.9897,32.6500623 C72.6609692,32.6508736 72.3944308,32.9177981 72.3936231,33.2480057 L72.3936231,37.5910057 L72.9897,37.5910057 C73.3184308,37.5910057 73.5857769,37.3232698 73.5857769,36.9930623 L73.5857769,33.8500057 L76.3981615,33.8500057 L76.3981615,37.5958736 L76.9942385,37.5958736 C77.3221615,37.5958736 77.5887,37.3289491 77.5887,36.9987415 L77.5887,36.9971189 L77.5887,32.6500623 L73.0066615,32.6500623 L73.0098923,32.6500623 Z" id="Fill-75" fill="#000000" mask="url(#mask-29)"></path>
                    <path d="M104.16525,35.0301528 L104.16525,34.4322094 L100.434519,34.4322094 L100.434519,33.6152094 L103.569981,33.6152094 C103.898712,33.6152094 104.16525,33.3474736 104.16525,33.017266 L104.16525,32.4177 L99.83925,32.4177 C99.5097115,32.4185113 99.2431731,32.6862472 99.2423654,33.017266 L99.2423654,37.2004358 L99.2423654,37.6401735 L103.56675,37.6401735 C103.894673,37.640983 104.161212,37.3748698 104.162019,37.0446623 L104.162019,37.0430396 L104.162019,36.4450962 L100.434519,36.4450962 L100.434519,35.6280962 L103.569981,35.6280962 C103.898712,35.6280962 104.16525,35.3603604 104.16525,35.0301528" id="Fill-76" fill="#000000" mask="url(#mask-29)"></path>
                    <path d="M87.5086154,36.3990943 L90.6440769,36.3990943 L90.6440769,33.5886792 L87.5086154,33.5886792 L87.5086154,36.3990943 Z M86.3172692,37.5957925 L91.2401538,37.5957925 C91.5688846,37.5957925 91.8354231,37.3280566 91.8354231,36.9978491 L91.8354231,32.3952264 L86.9133462,32.3952264 C86.5846154,32.3952264 86.3180769,32.6621509 86.3172692,32.9923585 L86.3172692,37.5957925 Z" id="Fill-77" fill="#000000" mask="url(#mask-29)"></path>
                    <path d="M70.1892692,37.5956302 L70.7829231,37.5956302 C71.1124615,37.5956302 71.379,37.3278943 71.379,36.9976868 L71.379,32.6498189 L70.7829231,32.6498189 C70.455,32.6506302 70.1892692,32.9175547 70.1892692,33.2485736 L70.1892692,37.5956302 Z" id="Fill-78" fill="#000000" mask="url(#mask-29)"></path>
                </g>
            </g>
        </g>
    </g>
</svg>